<svg xmlns="http://www.w3.org/2000/svg" viewBox="0 0 58.8 52.8"><defs><style>.cls-1{fill:#f4435a;}</style></defs><title>like1</title><g id="图层_2" data-name="图层 2"><g id="图层_1-2" data-name="图层 1"><g id="图层_1-2-2" data-name="图层 1-2"><path class="cls-1" d="M29.4,52.8a3.05,3.05,0,0,1-1.54-.42C26.73,51.7,0,35.58,0,18.6,0,8.34,7.81,0,17.4,0a16.94,16.94,0,0,1,12,5.08A16.93,16.93,0,0,1,41.38,0C51,0,58.8,8.34,58.8,18.6c0,17.12-26.74,33.11-27.87,33.78A3,3,0,0,1,29.4,52.8Z"/><path class="cls-1" d="M41.4,3a13.89,13.89,0,0,0-12,7,13.89,13.89,0,0,0-12-7C9.48,3,3,10,3,18.6,3,34.07,29.4,49.8,29.4,49.8S55.8,34.2,55.8,18.6C55.8,10,49.32,3,41.4,3Z"/></g></g></g></svg>