<svg xmlns="http://www.w3.org/2000/svg" viewBox="0 0 58.8 52.8"><defs><style>.cls-1{fill:#f4435a;}</style></defs><title>like0</title><g id="图层_2" data-name="图层 2"><g id="图层_1-2" data-name="图层 1"><path class="cls-1" d="M41.38,0a16.93,16.93,0,0,0-12,5.08A16.94,16.94,0,0,0,17.4,0C7.81,0,0,8.34,0,18.6c0,17,26.73,33.1,27.86,33.78a3.05,3.05,0,0,0,1.54.42,3,3,0,0,0,1.53-.42C32.06,51.71,58.8,35.72,58.8,18.6,58.8,8.34,51,0,41.38,0Zm-12,49.8S3,34.07,3,18.6C3,10,9.48,3,17.4,3a13.89,13.89,0,0,1,12,7,13.89,13.89,0,0,1,12-7c7.92,0,14.4,7,14.4,15.6C55.8,34.2,29.4,49.8,29.4,49.8Z"/></g></g></svg>